<?xml version="1.0" encoding="utf-8"?>
<!-- Generator: Adobe Illustrator 15.0.0, SVG Export Plug-In . SVG Version: 6.00 Build 0)  -->
<!DOCTYPE svg PUBLIC "-//W3C//DTD SVG 1.1//EN" "http://www.w3.org/Graphics/SVG/1.1/DTD/svg11.dtd">
<svg version="1.1" id="Layer_1" xmlns="http://www.w3.org/2000/svg" xmlns:xlink="http://www.w3.org/1999/xlink" x="0px" y="0px"
	 width="64px" height="64px" viewBox="0 0 64 64" enable-background="new 0 0 64 64" xml:space="preserve">
<g>
	<circle fill="#33691E" cx="32" cy="32" r="22.5"/>
	<g>
		<path fill="#33691E" d="M32.001,49.247c8.979,0,16.256-7.099,16.256-15.854H15.744C15.744,42.148,23.021,49.247,32.001,49.247z"/>
		<path fill="#EEEEEE" stroke="#EEEEEE" stroke-width="0.5" stroke-miterlimit="10" d="M32.001,49.83
			c-9.285,0-16.839-7.377-16.839-16.438v-0.58h33.675v0.58C48.837,42.453,41.284,49.83,32.001,49.83z M16.335,33.977
			c0.315,8.151,7.221,14.689,15.666,14.689c8.442,0,15.349-6.538,15.665-14.689H16.335z"/>
	</g>
	<g>
		<ellipse fill="#33691E" cx="32" cy="32.537" rx="16.256" ry="8.214"/>
		<path fill="#EEEEEE" stroke="#EEEEEE" stroke-width="0.5" stroke-miterlimit="10" d="M32.001,41.332
			c-9.442,0-16.839-3.865-16.839-8.795c0-4.931,7.396-8.794,16.839-8.794c9.44,0,16.836,3.863,16.836,8.794
			C48.837,37.467,41.441,41.332,32.001,41.332z M32.001,24.903c-8.498,0-15.678,3.498-15.678,7.634c0,4.139,7.18,7.634,15.678,7.634
			c8.496,0,15.675-3.495,15.675-7.634C47.676,28.401,40.497,24.903,32.001,24.903z"/>
	</g>
	<g>
		<path fill="#33691E" d="M23.974,30.422c0,0,3.46-13.933,5.675-14.957c1.696-0.785,3.264,10.185,3.264,10.185
			s7.519-8.673,10.29-9.44c2.822-0.786-2.262,16.021-2.262,16.021"/>
		<path fill="#EEEEEE" stroke="#EEEEEE" stroke-width="0.5" stroke-miterlimit="10" d="M41.367,31.142
			C41.335,31.142,42.148,30.823,41.367,31.142c-0.313-0.056-0.627-0.362-0.575-0.68c1.312-7.82,4.244-13.191,3.332-13.705
			c-2.103,0.589-9.287,6.836-10.717,9.193c-0.118,0.191-0.331,0.304-0.558,0.274c-0.224-0.021-0.413-0.174-0.488-0.385
			c-1.8-5.153-0.983-9.659-1.79-9.839c-1.104,0.536-5.459,7.931-6.023,14.471c-0.025,0.318-0.303,0.558-0.627,0.528
			c-0.319-0.027-0.556-0.307-0.528-0.628c0.288-3.347,4.428-14.353,6.767-15.436c0.19-0.087,0.497-0.163,0.883,0.002
			c1.669,0.707,0.994,6.623,2.011,9.387c1.541-2.418,8.342-8.009,10.748-8.68c0.406-0.11,0.805-0.021,1.111,0.258
			c1.915,1.724-2.402,11.336-2.977,14.752C41.89,30.938,41.645,31.142,41.367,31.142z"/>
	</g>
	<g>
		<path fill="#33691E" d="M20.359,32.23c0,0,2.688-2.934,6.623-1.242c1.936,0.829,3.012,3.346,3.012,3.346"/>
		<path fill="#EEEEEE" stroke="#EEEEEE" stroke-width="0.5" stroke-miterlimit="10" d="M29.994,34.914
			c-0.226,0-0.439-0.131-0.534-0.352c-0.011-0.022-1.011-2.314-2.706-3.042c-3.518-1.509-5.939,1.073-5.965,1.102
			c-0.217,0.234-0.585,0.25-0.82,0.036c-0.238-0.218-0.253-0.586-0.037-0.82c0.033-0.034,3.016-3.216,7.281-1.385
			c2.124,0.911,3.268,3.538,3.314,3.653c0.127,0.293-0.011,0.633-0.307,0.756C30.148,34.896,30.069,34.914,29.994,34.914z"/>
	</g>
	<g>
		<path fill="#33691E" d="M35.124,34.036c0,0,0.992-3.417,3.796-3.592c4.123-0.26,4.844,2.662,4.844,2.662"/>
		<path fill="#EEEEEE" stroke="#EEEEEE" stroke-width="0.5" stroke-miterlimit="10" d="M35.124,34.615
			c-0.054,0-0.106-0.008-0.164-0.028c-0.308-0.087-0.481-0.407-0.394-0.714c0.043-0.158,1.142-3.81,4.317-4.01
			c4.53-0.285,5.435,3.071,5.44,3.102c0.078,0.311-0.113,0.627-0.424,0.705c-0.312,0.079-0.625-0.113-0.703-0.425
			c-0.023-0.095-0.678-2.44-4.241-2.221c-2.356,0.146-3.267,3.141-3.274,3.171C35.605,34.451,35.376,34.615,35.124,34.615z"/>
	</g>
</g>
</svg>
