<?xml version="1.0" encoding="utf-8"?>
<!-- Generator: Adobe Illustrator 15.0.0, SVG Export Plug-In . SVG Version: 6.00 Build 0)  -->
<!DOCTYPE svg PUBLIC "-//W3C//DTD SVG 1.1//EN" "http://www.w3.org/Graphics/SVG/1.1/DTD/svg11.dtd">
<svg version="1.1" id="Layer_1" xmlns="http://www.w3.org/2000/svg" xmlns:xlink="http://www.w3.org/1999/xlink" x="0px" y="0px"
	 width="55px" height="55px" viewBox="0 0 55 55" enable-background="new 0 0 55 55" xml:space="preserve">
<g>
	<g>
		<path fill="#33691E" d="M14.703,46.981l1.729-0.166c0.104,0.578,0.314,1.004,0.633,1.276c0.317,0.272,0.747,0.408,1.287,0.408
			c0.572,0,1.003-0.12,1.294-0.363c0.291-0.241,0.435-0.524,0.435-0.849c0-0.207-0.061-0.386-0.182-0.531
			c-0.122-0.146-0.337-0.273-0.64-0.381c-0.208-0.071-0.682-0.201-1.423-0.384c-0.953-0.237-1.619-0.528-2.004-0.871
			c-0.54-0.484-0.81-1.073-0.81-1.771c0-0.447,0.127-0.867,0.381-1.255c0.254-0.392,0.619-0.689,1.098-0.893
			s1.056-0.307,1.731-0.307c1.104,0,1.937,0.241,2.494,0.727c0.558,0.484,0.851,1.131,0.879,1.938l-1.775,0.078
			c-0.076-0.453-0.24-0.778-0.489-0.976c-0.251-0.198-0.625-0.297-1.125-0.297c-0.517,0-0.921,0.106-1.213,0.317
			c-0.188,0.137-0.282,0.319-0.282,0.547c0,0.207,0.089,0.386,0.266,0.533c0.223,0.19,0.768,0.386,1.633,0.588
			c0.864,0.205,1.503,0.417,1.918,0.634c0.413,0.219,0.738,0.518,0.973,0.894c0.233,0.379,0.351,0.847,0.351,1.402
			c0,0.504-0.141,0.976-0.421,1.417c-0.278,0.44-0.675,0.768-1.187,0.98C19.74,49.892,19.103,50,18.338,50
			c-1.111,0-1.967-0.257-2.562-0.772C15.177,48.715,14.82,47.967,14.703,46.981z"/>
		<path fill="#33691E" d="M23.328,49.845v-8.799h2.659l1.596,6.003l1.578-6.003h2.666v8.799h-1.651v-6.927l-1.746,6.927h-1.71
			l-1.742-6.927v6.927H23.328z"/>
		<path fill="#33691E" d="M33.142,46.981l1.73-0.166c0.102,0.578,0.314,1.004,0.632,1.276c0.318,0.272,0.748,0.408,1.289,0.408
			c0.57,0,1.003-0.12,1.292-0.363c0.291-0.241,0.436-0.524,0.436-0.849c0-0.207-0.062-0.386-0.183-0.531
			c-0.122-0.146-0.337-0.273-0.639-0.381c-0.209-0.071-0.683-0.201-1.424-0.384c-0.953-0.237-1.621-0.528-2.004-0.871
			c-0.54-0.484-0.811-1.073-0.811-1.771c0-0.447,0.127-0.867,0.381-1.255c0.256-0.392,0.621-0.689,1.099-0.893
			s1.056-0.307,1.731-0.307c1.105,0,1.936,0.241,2.494,0.727c0.559,0.484,0.852,1.131,0.88,1.938l-1.776,0.078
			c-0.077-0.453-0.239-0.778-0.489-0.976c-0.25-0.198-0.626-0.297-1.126-0.297c-0.515,0-0.921,0.106-1.213,0.317
			c-0.187,0.137-0.28,0.319-0.28,0.547c0,0.207,0.087,0.386,0.264,0.533c0.224,0.19,0.768,0.386,1.632,0.588
			c0.863,0.205,1.504,0.417,1.918,0.634c0.415,0.219,0.738,0.518,0.972,0.894c0.235,0.379,0.352,0.847,0.352,1.402
			c0,0.504-0.14,0.976-0.42,1.417c-0.279,0.44-0.676,0.768-1.188,0.98C38.177,49.892,37.538,50,36.775,50
			c-1.113,0-1.968-0.257-2.563-0.772C33.614,48.715,33.259,47.967,33.142,46.981z"/>
	</g>
	<g>
		<path fill="#33691E" d="M19.919,34.805l-0.042-7.517h-6.636c-2.81,0-5.095-2.285-5.095-5.094v-12.1C8.146,7.286,10.432,5,13.241,5
			h28.52c2.809,0,5.093,2.286,5.093,5.095v12.098c0,2.81-2.285,5.094-5.093,5.094h-10.75L19.919,34.805z M13.241,6.893
			c-1.766,0-3.202,1.437-3.202,3.202v12.098c0,1.767,1.437,3.203,3.202,3.203h8.516l0.033,5.855l8.64-5.855h11.331
			c1.766,0,3.201-1.437,3.201-3.203V10.095c0-1.766-1.436-3.202-3.201-3.202H13.241z"/>
		<circle fill="#33691E" cx="18.83" cy="16.565" r="2.147"/>
		<circle fill="#33691E" cx="27.48" cy="16.565" r="2.147"/>
		<circle fill="#33691E" cx="36.132" cy="16.565" r="2.146"/>
	</g>
</g>
</svg>
