<?xml version="1.0" encoding="utf-8"?>
<!-- Generator: Adobe Illustrator 15.0.0, SVG Export Plug-In . SVG Version: 6.00 Build 0)  -->
<!DOCTYPE svg PUBLIC "-//W3C//DTD SVG 1.1//EN" "http://www.w3.org/Graphics/SVG/1.1/DTD/svg11.dtd">
<svg version="1.1" id="Layer_1" xmlns="http://www.w3.org/2000/svg" xmlns:xlink="http://www.w3.org/1999/xlink" x="0px" y="0px"
	 width="55px" height="55px" viewBox="0 0 55 55" enable-background="new 0 0 55 55" xml:space="preserve">
<g>
	<g>
		<path fill="#33691E" d="M22.766,11.109c0.117,0,0.235,0,0.351,0c0.554,0.434,0.796,1.149,1.176,1.829
			c0.154,0.276,0.335,0.609,0.552,0.952c0.188,0.299,0.518,0.65,0.501,1.001c-0.023,0.486-0.675,0.909-0.978,1.152
			c-0.19,0.153-0.382,0.292-0.575,0.476c-0.164,0.155-0.43,0.394-0.451,0.602c-0.035,0.335,0.312,0.753,0.476,1.027
			c0.544,0.909,1.25,1.926,1.904,2.581c0.771,0.772,1.554,1.304,2.58,1.904c0.273,0.159,0.66,0.498,1.002,0.475
			c0.416-0.027,0.877-0.746,1.104-1.025c0.246-0.311,0.656-0.942,1.125-0.977c0.373-0.029,0.721,0.308,1.029,0.5
			c0.346,0.219,0.668,0.393,0.951,0.551c0.682,0.378,1.365,0.609,1.828,1.178c0,0.117,0,0.234,0,0.351
			c-0.137,0.585-0.17,1.106-0.426,1.527s-0.809,0.766-1.279,1.028c-0.518,0.287-1.148,0.452-1.752,0.55c-0.225,0-0.451,0-0.676,0
			c-3.207-0.643-5.583-2.116-7.439-4.108c-1.992-1.855-3.464-4.234-4.108-7.438c0-0.226,0-0.452,0-0.677
			c0.147-1.046,0.694-2.279,1.428-2.906C21.496,11.313,22.14,11.238,22.766,11.109z"/>
	</g>
</g>
<g>
	<path fill="#33691E" d="M8.303,47.668v-7.037H5.791v-1.433h6.729v1.433h-2.506v7.037H8.303z"/>
	<path fill="#33691E" d="M16.286,45.714l1.617,0.271c-0.208,0.593-0.538,1.046-0.985,1.355c-0.448,0.31-1.01,0.464-1.684,0.464
		c-1.067,0-1.855-0.348-2.368-1.045c-0.405-0.558-0.607-1.263-0.607-2.115c0-1.015,0.266-1.812,0.798-2.388
		c0.532-0.574,1.204-0.863,2.016-0.863c0.912,0,1.632,0.301,2.16,0.903c0.527,0.603,0.78,1.526,0.756,2.771h-4.067
		c0.012,0.481,0.143,0.855,0.393,1.123c0.25,0.269,0.561,0.401,0.936,0.401c0.255,0,0.468-0.067,0.641-0.208
		C16.067,46.246,16.197,46.022,16.286,45.714z M16.377,44.073c-0.012-0.47-0.132-0.826-0.363-1.07
		c-0.231-0.245-0.513-0.366-0.843-0.366c-0.354,0-0.647,0.127-0.878,0.386c-0.23,0.259-0.344,0.608-0.34,1.053h2.424V44.073z"/>
	<path fill="#33691E" d="M19.312,47.668v-8.47h1.623v8.47H19.312z"/>
	<path fill="#33691E" d="M26.15,45.714l1.617,0.271c-0.208,0.593-0.537,1.046-0.983,1.355c-0.449,0.31-1.01,0.464-1.684,0.464
		c-1.066,0-1.855-0.348-2.368-1.045c-0.405-0.558-0.606-1.263-0.606-2.115c0-1.015,0.265-1.812,0.798-2.388
		c0.531-0.574,1.203-0.863,2.016-0.863c0.913,0,1.632,0.301,2.16,0.903c0.528,0.603,0.779,1.526,0.757,2.771H23.79
		c0.011,0.481,0.143,0.855,0.392,1.123c0.25,0.269,0.562,0.401,0.936,0.401c0.253,0,0.468-0.067,0.642-0.208
		C25.931,46.246,26.062,46.022,26.15,45.714z M26.244,44.073c-0.012-0.47-0.133-0.826-0.364-1.07
		c-0.231-0.245-0.512-0.366-0.842-0.366c-0.355,0-0.647,0.127-0.879,0.386s-0.344,0.608-0.341,1.053h2.427V44.073z"/>
	<path fill="#33691E" d="M29.131,41.532h1.512v0.901c0.197-0.309,0.463-0.559,0.799-0.751c0.336-0.193,0.705-0.289,1.113-0.289
		c0.713,0,1.318,0.279,1.814,0.837c0.496,0.56,0.746,1.338,0.746,2.334c0,1.024-0.252,1.819-0.752,2.39
		c-0.5,0.567-1.107,0.851-1.82,0.851c-0.34,0-0.646-0.066-0.92-0.201c-0.275-0.134-0.566-0.366-0.869-0.693V50h-1.623V41.532z
		 M30.736,44.496c0,0.689,0.137,1.198,0.41,1.528c0.275,0.328,0.607,0.495,1,0.495c0.377,0,0.691-0.151,0.941-0.454
		c0.25-0.302,0.375-0.797,0.375-1.487c0-0.643-0.129-1.121-0.387-1.433c-0.258-0.312-0.576-0.467-0.959-0.467
		c-0.396,0-0.727,0.152-0.986,0.459C30.867,43.443,30.736,43.896,30.736,44.496z"/>
	<path fill="#33691E" d="M36.027,44.513c0-0.54,0.135-1.062,0.398-1.565c0.268-0.505,0.643-0.89,1.131-1.155
		c0.488-0.265,1.031-0.398,1.631-0.398c0.928,0,1.689,0.301,2.281,0.903c0.594,0.603,0.891,1.364,0.891,2.286
		c0,0.928-0.301,1.696-0.898,2.307s-1.354,0.915-2.262,0.915c-0.562,0-1.1-0.127-1.609-0.381s-0.898-0.625-1.164-1.117
		C36.162,45.816,36.027,45.218,36.027,44.513z M37.691,44.6c0,0.608,0.145,1.075,0.434,1.396c0.289,0.324,0.645,0.487,1.068,0.487
		c0.422,0,0.777-0.162,1.064-0.487c0.287-0.321,0.432-0.793,0.432-1.407c0-0.601-0.145-1.062-0.432-1.387
		c-0.287-0.323-0.643-0.484-1.064-0.484c-0.424,0-0.779,0.161-1.068,0.484C37.836,43.526,37.691,43.99,37.691,44.6z"/>
	<path fill="#33691E" d="M49.209,47.668h-1.625v-3.131c0-0.663-0.033-1.092-0.102-1.286c-0.07-0.194-0.182-0.345-0.338-0.453
		c-0.156-0.107-0.344-0.16-0.562-0.16c-0.281,0-0.535,0.076-0.758,0.23s-0.377,0.358-0.459,0.612s-0.125,0.725-0.125,1.41v2.779
		h-1.623v-6.136h1.508v0.901c0.537-0.693,1.209-1.04,2.021-1.04c0.357,0,0.686,0.064,0.982,0.194
		c0.295,0.129,0.521,0.293,0.674,0.494c0.15,0.199,0.258,0.428,0.318,0.682c0.059,0.253,0.088,0.618,0.088,1.092V47.668
		L49.209,47.668z"/>
</g>
<path fill="#33691E" d="M37.414,32.9H17.586c-2.239,0-4.061-1.819-4.061-4.055V9.054C13.525,6.819,15.347,5,17.586,5h19.828
	c2.239,0,4.061,1.819,4.061,4.054v19.792C41.475,31.081,39.653,32.9,37.414,32.9z M17.586,6.9c-1.191,0-2.16,0.966-2.16,2.154
	v19.792c0,1.188,0.969,2.154,2.16,2.154h19.828c1.191,0,2.16-0.966,2.16-2.154V9.054c0-1.188-0.969-2.154-2.16-2.154H17.586z"/>
</svg>
