<?xml version="1.0" encoding="utf-8"?>
<!-- Generator: Adobe Illustrator 15.0.0, SVG Export Plug-In . SVG Version: 6.00 Build 0)  -->
<!DOCTYPE svg PUBLIC "-//W3C//DTD SVG 1.1//EN" "http://www.w3.org/Graphics/SVG/1.1/DTD/svg11.dtd">
<svg version="1.1" id="Layer_1" xmlns="http://www.w3.org/2000/svg" xmlns:xlink="http://www.w3.org/1999/xlink" x="0px" y="0px"
	 width="65px" height="55px" viewBox="0 0 65 55" enable-background="new 0 0 65 55" xml:space="preserve">
<g>
	<path fill="#33691E" d="M26.183,30.121c1.954,1.067,4.152,1.625,6.389,1.626h0.007c7.368,0,13.367-5.997,13.37-13.369
		c0.001-3.571-1.388-6.932-3.912-9.458C39.512,6.394,36.154,5,32.579,5c-7.37,0-13.368,5.997-13.372,13.368
		c-0.001,2.356,0.618,4.658,1.785,6.683l-1.896,6.927L26.183,30.121z M32.581,7.258c2.969,0.001,5.757,1.158,7.856,3.26
		c2.1,2.099,3.252,4.891,3.251,7.859c-0.001,6.129-4.985,11.113-11.111,11.113h-0.006c-1.994-0.001-3.95-0.537-5.656-1.549
		L26.51,27.7l-4.206,1.103l1.124-4.099l-0.266-0.419c-1.113-1.771-1.701-3.815-1.7-5.915C21.466,12.242,26.451,7.258,32.581,7.258
		 M32.854,23.901c0.798,0.343,1.42,0.548,1.906,0.703c0.801,0.253,1.528,0.219,2.104,0.131c0.641-0.095,1.975-0.809,2.254-1.588
		c0.28-0.78,0.28-1.449,0.195-1.587c-0.083-0.142-0.307-0.224-0.64-0.39c-0.335-0.168-1.976-0.977-2.282-1.087
		c-0.306-0.111-0.529-0.168-0.751,0.167c-0.224,0.333-0.864,1.086-1.06,1.31c-0.195,0.222-0.39,0.25-0.724,0.083
		c-0.334-0.167-1.409-0.521-2.687-1.659c-0.992-0.887-1.664-1.979-1.857-2.313c-0.196-0.334-0.021-0.515,0.146-0.682
		c0.15-0.15,0.333-0.391,0.501-0.585c0.166-0.196,0.222-0.336,0.333-0.557c0.111-0.225,0.057-0.418-0.027-0.586
		c-0.083-0.168-0.752-1.811-1.03-2.481c-0.271-0.651-0.546-0.562-0.751-0.572c-0.195-0.01-0.417-0.013-0.642-0.013
		c-0.222,0-0.585,0.084-0.89,0.417c-0.306,0.336-1.169,1.143-1.169,2.789s1.196,3.232,1.366,3.455
		C27.315,19.077,29.503,22.451,32.854,23.901 M12.609,45.205h-0.021l-1.453-5.855h-1.75L7.91,45.132H7.887L6.544,39.35H4.675
		l2.248,8.497h1.892l1.414-5.783h0.023l1.44,5.783h1.855l2.283-8.497h-1.832L12.609,45.205z M21.532,42.222
		c-0.167-0.218-0.394-0.386-0.683-0.508c-0.291-0.126-0.661-0.187-1.112-0.187c-0.319,0-0.643,0.081-0.977,0.243
		c-0.333,0.161-0.607,0.423-0.821,0.78h-0.037v-3.202h-1.689v8.497h1.689V44.62c0-0.626,0.104-1.078,0.31-1.351
		s0.54-0.412,0.999-0.412c0.404,0,0.685,0.127,0.846,0.379c0.159,0.249,0.237,0.629,0.237,1.137v3.473h1.689v-3.785
		c0-0.381-0.033-0.726-0.102-1.043C21.814,42.708,21.697,42.441,21.532,42.222 M28.491,46.478v-3.2c0-0.373-0.083-0.674-0.25-0.896
		c-0.165-0.229-0.381-0.405-0.643-0.53c-0.262-0.131-0.549-0.215-0.868-0.256c-0.317-0.044-0.63-0.066-0.94-0.066
		c-0.34,0-0.679,0.033-1.017,0.103c-0.338,0.064-0.641,0.179-0.912,0.337c-0.269,0.159-0.492,0.371-0.665,0.63
		c-0.174,0.262-0.272,0.591-0.297,0.988h1.689c0.033-0.333,0.144-0.573,0.333-0.715c0.192-0.14,0.452-0.217,0.785-0.217
		c0.151,0,0.291,0.014,0.422,0.035c0.131,0.019,0.247,0.06,0.344,0.117c0.102,0.059,0.179,0.143,0.239,0.249
		c0.059,0.107,0.089,0.255,0.089,0.433c0.008,0.176-0.044,0.306-0.154,0.401c-0.111,0.09-0.261,0.158-0.453,0.21
		c-0.19,0.044-0.409,0.083-0.654,0.104c-0.246,0.021-0.497,0.056-0.75,0.1c-0.253,0.039-0.506,0.088-0.755,0.16
		c-0.25,0.064-0.473,0.167-0.668,0.301c-0.194,0.137-0.353,0.314-0.477,0.541c-0.122,0.227-0.185,0.514-0.185,0.863
		c0,0.318,0.056,0.591,0.162,0.822c0.107,0.23,0.256,0.417,0.447,0.568c0.19,0.154,0.411,0.264,0.666,0.334
		c0.254,0.069,0.528,0.109,0.821,0.109c0.38,0,0.754-0.057,1.118-0.165c0.364-0.112,0.681-0.306,0.952-0.586
		c0.008,0.105,0.022,0.207,0.042,0.303c0.02,0.1,0.046,0.195,0.076,0.293h1.714c-0.079-0.126-0.135-0.315-0.167-0.57
		C28.506,47.021,28.491,46.756,28.491,46.478 M26.802,45.466c0,0.097-0.009,0.225-0.029,0.382c-0.021,0.159-0.073,0.313-0.16,0.468
		c-0.088,0.155-0.223,0.29-0.405,0.4c-0.182,0.112-0.44,0.169-0.774,0.169c-0.135,0-0.267-0.015-0.394-0.035
		c-0.125-0.025-0.237-0.066-0.332-0.129c-0.095-0.06-0.17-0.139-0.226-0.243c-0.055-0.104-0.083-0.229-0.083-0.378
		c0-0.158,0.028-0.29,0.083-0.392c0.056-0.105,0.13-0.189,0.221-0.259c0.09-0.065,0.197-0.122,0.32-0.159
		c0.123-0.04,0.247-0.07,0.375-0.097c0.134-0.023,0.271-0.043,0.404-0.062c0.135-0.011,0.264-0.033,0.387-0.06
		c0.123-0.02,0.237-0.053,0.346-0.088c0.106-0.036,0.195-0.083,0.268-0.149v0.631H26.802z M31.645,39.849h-1.69v1.846h-1.021v1.13
		h1.021v3.632c0,0.306,0.052,0.555,0.154,0.747c0.104,0.189,0.243,0.336,0.421,0.441c0.179,0.103,0.384,0.169,0.62,0.208
		c0.235,0.036,0.481,0.054,0.744,0.054c0.167,0,0.335-0.005,0.511-0.014c0.174-0.005,0.332-0.023,0.475-0.047v-1.311
		c-0.079,0.018-0.162,0.033-0.25,0.036c-0.086,0.009-0.178,0.015-0.273,0.015c-0.287,0-0.477-0.051-0.571-0.145
		c-0.096-0.097-0.143-0.284-0.143-0.569v-3.05h1.237v-1.129h-1.236L31.645,39.849L31.645,39.849z M38.627,45.151
		c-0.112-0.196-0.256-0.356-0.44-0.487c-0.184-0.132-0.39-0.237-0.623-0.316c-0.236-0.078-0.476-0.148-0.722-0.202
		c-0.238-0.055-0.472-0.107-0.702-0.154c-0.229-0.048-0.434-0.102-0.612-0.159c-0.179-0.062-0.322-0.14-0.434-0.233
		c-0.113-0.096-0.167-0.218-0.167-0.368c0-0.128,0.032-0.229,0.096-0.305c0.063-0.076,0.142-0.131,0.23-0.174
		c0.094-0.036,0.193-0.062,0.306-0.074c0.111-0.015,0.213-0.022,0.309-0.022c0.301,0,0.563,0.063,0.785,0.176
		c0.222,0.113,0.344,0.334,0.368,0.659h1.606c-0.033-0.382-0.129-0.693-0.291-0.942c-0.161-0.25-0.368-0.451-0.612-0.603
		c-0.246-0.15-0.526-0.257-0.84-0.321s-0.637-0.096-0.97-0.096c-0.335,0-0.658,0.027-0.977,0.088
		c-0.317,0.062-0.603,0.164-0.855,0.312c-0.254,0.145-0.458,0.348-0.614,0.602c-0.152,0.252-0.231,0.578-0.231,0.974
		c0,0.271,0.057,0.499,0.168,0.683c0.108,0.189,0.255,0.345,0.439,0.468c0.183,0.118,0.39,0.225,0.625,0.295
		c0.234,0.076,0.474,0.141,0.718,0.196c0.604,0.128,1.073,0.256,1.411,0.382c0.335,0.126,0.505,0.317,0.505,0.571
		c0,0.15-0.035,0.274-0.109,0.373c-0.071,0.103-0.159,0.181-0.266,0.241c-0.108,0.056-0.228,0.098-0.358,0.128
		c-0.131,0.027-0.256,0.043-0.373,0.043c-0.167,0-0.328-0.022-0.482-0.062c-0.155-0.036-0.291-0.102-0.411-0.185
		c-0.117-0.085-0.218-0.188-0.291-0.324c-0.075-0.129-0.113-0.285-0.113-0.467h-1.604c0.018,0.412,0.109,0.756,0.282,1.026
		c0.168,0.277,0.387,0.499,0.653,0.665c0.266,0.166,0.569,0.283,0.91,0.354c0.341,0.07,0.69,0.107,1.045,0.107
		c0.351,0,0.695-0.032,1.03-0.1c0.336-0.069,0.636-0.186,0.896-0.354c0.265-0.165,0.474-0.384,0.638-0.658
		c0.162-0.276,0.243-0.614,0.243-1.015C38.793,45.587,38.737,45.345,38.627,45.151 M41.98,39.349l-3.212,8.497h1.88l0.666-1.891
		h3.177l0.642,1.891h1.939l-3.178-8.497H41.98z M41.806,44.561l1.104-3.113h0.023l1.071,3.113H41.806z M52.914,42.527
		c-0.232-0.304-0.521-0.542-0.868-0.725c-0.351-0.185-0.766-0.275-1.251-0.275c-0.381,0-0.729,0.074-1.048,0.228
		c-0.317,0.151-0.576,0.392-0.784,0.725h-0.023v-0.785h-1.606V50h1.691v-2.916h0.022c0.205,0.301,0.471,0.531,0.792,0.686
		c0.32,0.154,0.672,0.232,1.054,0.232c0.451,0,0.846-0.088,1.183-0.263c0.338-0.174,0.619-0.409,0.845-0.703
		c0.227-0.291,0.395-0.631,0.506-1.013c0.108-0.377,0.166-0.776,0.166-1.19c0-0.435-0.058-0.854-0.166-1.252
		C53.313,43.18,53.144,42.83,52.914,42.527 M51.829,45.516c-0.046,0.237-0.13,0.441-0.242,0.623
		c-0.112,0.177-0.264,0.322-0.453,0.435c-0.187,0.111-0.417,0.167-0.695,0.167c-0.271,0-0.499-0.056-0.691-0.167
		c-0.188-0.112-0.341-0.258-0.456-0.435c-0.115-0.182-0.198-0.386-0.249-0.623c-0.053-0.241-0.077-0.481-0.077-0.729
		c0-0.252,0.022-0.498,0.069-0.738c0.049-0.235,0.13-0.446,0.245-0.628c0.114-0.181,0.266-0.334,0.454-0.448
		c0.186-0.115,0.416-0.17,0.693-0.17c0.271,0,0.499,0.055,0.686,0.17c0.186,0.113,0.338,0.268,0.456,0.454
		c0.119,0.186,0.205,0.398,0.256,0.635c0.053,0.241,0.076,0.481,0.076,0.726C51.903,45.034,51.879,45.274,51.829,45.516
		 M60.157,43.581c-0.109-0.401-0.28-0.751-0.511-1.054c-0.232-0.304-0.519-0.542-0.867-0.725c-0.35-0.185-0.767-0.275-1.25-0.275
		c-0.381,0-0.729,0.074-1.047,0.228c-0.316,0.151-0.579,0.392-0.785,0.725h-0.022v-0.785h-1.607V50h1.689v-2.916h0.022
		c0.207,0.301,0.471,0.531,0.793,0.686c0.32,0.154,0.672,0.232,1.054,0.232c0.45,0,0.845-0.088,1.183-0.263
		c0.337-0.174,0.62-0.409,0.846-0.703c0.227-0.291,0.395-0.631,0.505-1.013c0.112-0.377,0.166-0.776,0.166-1.19
		C60.325,44.4,60.271,43.98,60.157,43.581 M58.565,45.516c-0.05,0.237-0.13,0.441-0.244,0.623c-0.116,0.177-0.267,0.322-0.453,0.435
		c-0.187,0.111-0.418,0.167-0.696,0.167c-0.27,0-0.5-0.056-0.689-0.167c-0.193-0.112-0.343-0.258-0.457-0.435
		c-0.114-0.182-0.198-0.386-0.251-0.623c-0.051-0.241-0.075-0.481-0.075-0.729c0-0.252,0.022-0.498,0.07-0.738
		c0.046-0.235,0.129-0.446,0.242-0.628c0.114-0.181,0.266-0.334,0.455-0.448c0.185-0.115,0.416-0.17,0.695-0.17
		c0.268,0,0.496,0.055,0.682,0.17c0.188,0.113,0.339,0.268,0.459,0.454c0.117,0.186,0.203,0.398,0.256,0.635
		c0.053,0.241,0.077,0.481,0.077,0.726C58.636,45.034,58.611,45.274,58.565,45.516"/>
</g>
</svg>
